<svg xmlns="http://www.w3.org/2000/svg" xmlns:xlink="http://www.w3.org/1999/xlink" viewBox="0 0 144.77 19.43"><defs><style>.cls-1{fill:#fff;}.cls-1,.cls-3,.cls-4{fill-rule:evenodd;}.cls-2{mask:url(#mask);}.cls-3{fill:#f90;}.cls-4,.cls-6{fill:#232f3e;}.cls-5{mask:url(#mask-2-2);}</style><mask id="mask" x="8.29" y="13" width="28.5" height="6.42" maskUnits="userSpaceOnUse"><g id="mask-2"><polygon id="path-1" class="cls-1" points="8.29 13 36.79 13 36.79 19.43 8.29 19.43 8.29 13"/></g></mask><mask id="mask-2-2" x="51.41" y="1.77" width="7.49" height="10.2" maskUnits="userSpaceOnUse"><g id="mask-4"><polygon id="path-3" class="cls-1" points="51.41 1.77 58.9 1.77 58.9 11.97 51.41 11.97 51.41 1.77"/></g></mask></defs><g id="Layer_2" data-name="Layer 2"><g id="图层_1" data-name="图层 1"><g id="Artboard-Copy"><g id="Group-19"><g id="Group-3"><g class="cls-2"><path id="Fill-1" class="cls-3" d="M36.54,15.56a22.45,22.45,0,0,1-12.66,3.87,22.94,22.94,0,0,1-15.46-5.9c-.32-.29,0-.69.35-.46a31.17,31.17,0,0,0,15.47,4.1A30.75,30.75,0,0,0,36,14.76c.58-.25,1.06.38.5.8"/></g></g><path id="Fill-4" class="cls-3" d="M38,13.93c-.44-.56-2.89-.26-4-.13-.34,0-.39-.25-.09-.46,2-1.38,5.17-1,5.54-.52s-.1,3.68-1.93,5.22c-.28.23-.55.11-.43-.21.42-1,1.34-3.34.9-3.9"/><path id="Fill-6" class="cls-4" d="M34,3.62V2.28a.34.34,0,0,1,.34-.34h6a.33.33,0,0,1,.35.34V3.42a1.82,1.82,0,0,1-.45.85L37.16,8.7a6.6,6.6,0,0,1,3.42.73.61.61,0,0,1,.32.52v1.43a.33.33,0,0,1-.44.31,6.87,6.87,0,0,0-6.33,0c-.21.11-.43-.12-.43-.31V10a1.68,1.68,0,0,1,.22-.92L37.52,4H34.39A.33.33,0,0,1,34,3.62"/><path id="Fill-8" class="cls-4" d="M45.88,1.77c2.7,0,4.17,2.32,4.17,5.27s-1.62,5.12-4.17,5.12S41.78,9.84,41.78,7s1.46-5.18,4.1-5.18m0,1.91c-1.34,0-1.43,1.83-1.43,3s0,3.58,1.42,3.58,1.48-2,1.48-3.17a8.63,8.63,0,0,0-.28-2.48,1.13,1.13,0,0,0-1.19-.9"/><path id="Fill-10" class="cls-4" d="M29.27,7.5a3.64,3.64,0,0,1-.34,1.93,1.49,1.49,0,0,1-1.27.83c-.69,0-1.1-.53-1.1-1.32,0-1.55,1.39-1.84,2.71-1.84Zm1.84,4.44a.43.43,0,0,1-.44.05,4.87,4.87,0,0,1-1-1.22,3.62,3.62,0,0,1-3,1.33A2.59,2.59,0,0,1,23.9,9.25a3.08,3.08,0,0,1,1.94-3,12.46,12.46,0,0,1,3.43-.64,3.22,3.22,0,0,0-.22-1.56,1.29,1.29,0,0,0-1-.47,1.4,1.4,0,0,0-1.46,1.07c0,.21-.18.38-.34.36l-1.75-.19a.32.32,0,0,1-.27-.38c.41-2.14,2.34-2.79,4.08-2.79A4.07,4.07,0,0,1,31,2.59c.89.82.81,1.93.81,3.13V8.56a2.49,2.49,0,0,0,.68,1.69c.12.17.15.36,0,.49-.38.31-1.4,1.2-1.4,1.2Z"/><path id="Fill-12" class="cls-4" d="M5.37,7.5A3.54,3.54,0,0,1,5,9.43a1.49,1.49,0,0,1-1.26.83c-.7,0-1.11-.53-1.11-1.32,0-1.55,1.39-1.84,2.71-1.84Zm1.84,4.44a.41.41,0,0,1-.43.05,5,5,0,0,1-1-1.22,3.61,3.61,0,0,1-3,1.33A2.59,2.59,0,0,1,0,9.25a3.08,3.08,0,0,1,1.94-3,12.46,12.46,0,0,1,3.43-.64,3.22,3.22,0,0,0-.22-1.56,1.28,1.28,0,0,0-1-.47A1.39,1.39,0,0,0,2.67,4.68c0,.21-.19.38-.35.36L.58,4.85a.31.31,0,0,1-.27-.38c.4-2.14,2.34-2.79,4.07-2.79a4.1,4.1,0,0,1,2.75.91c.88.82.8,1.93.8,3.13V8.56a2.45,2.45,0,0,0,.69,1.69.36.36,0,0,1,0,.49l-1.4,1.2Z"/><path id="Fill-14" class="cls-4" d="M12.54,6.67c0-1.08,0-2.58,1.26-2.58s1.12,1.54,1.12,2.58v5a.36.36,0,0,0,.33.34h1.82a.34.34,0,0,0,.35-.34v-5a5.86,5.86,0,0,1,.17-1.79,1.22,1.22,0,0,1,1.09-.77,1,1,0,0,1,1.07.81,11.29,11.29,0,0,1,.06,1.75v5a.35.35,0,0,0,.32.34H22a.34.34,0,0,0,.35-.34V5.73a5,5,0,0,0-.46-2.94,2.7,2.7,0,0,0-4.63.71,2.51,2.51,0,0,0-4.77,0h0V2.31A.34.34,0,0,0,12.08,2h-1.7a.34.34,0,0,0-.34.34v9.32a.34.34,0,0,0,.34.34H12.2a.34.34,0,0,0,.34-.34Z"/><g id="Group-18"><g class="cls-5"><path id="Fill-16" class="cls-4" d="M53.91,11.63a.34.34,0,0,1-.34.34H51.75a.34.34,0,0,1-.34-.34V2.31A.34.34,0,0,1,51.75,2h1.68a.33.33,0,0,1,.34.26V3.66h0a2.47,2.47,0,0,1,2.48-1.89,2.38,2.38,0,0,1,2.13,1.1,5.91,5.91,0,0,1,.48,2.91v5.89a.35.35,0,0,1-.35.3H56.72a.35.35,0,0,1-.33-.3V6c0-1.89-.73-1.95-1.15-1.95a1.24,1.24,0,0,0-1,.74,4.13,4.13,0,0,0-.3,1.78Z"/></g></g></g></g><path class="cls-6" d="M66.25,14.37a5.86,5.86,0,0,1-2.3-.45.53.53,0,0,1-.24-.17.48.48,0,0,1-.06-.28V13c0-.19.06-.27.18-.27a.69.69,0,0,1,.22,0l.35.11a7,7,0,0,0,1.73.25,2.31,2.31,0,0,0,1.75-.58,2.59,2.59,0,0,0,.56-1.85v-.68a3.62,3.62,0,0,1-1.1.67,3.07,3.07,0,0,1-1.18.24,2.84,2.84,0,0,1-1.67-.49,3,3,0,0,1-1.08-1.33,4.83,4.83,0,0,1-.37-2,4.39,4.39,0,0,1,.85-2.86,2.8,2.8,0,0,1,2.3-1.06,3.34,3.34,0,0,1,2.35.93l.08-.42a.31.31,0,0,1,.11-.22A.37.37,0,0,1,69,3.5h.65a.26.26,0,0,1,.3.29v6.85a3.77,3.77,0,0,1-1,2.76A3.62,3.62,0,0,1,66.25,14.37Zm.34-4.6a3.06,3.06,0,0,0,1.85-.69V5.13a3.09,3.09,0,0,0-.92-.5,3,3,0,0,0-1-.16c-1.3,0-2,.88-2,2.65a3.16,3.16,0,0,0,.52,2A1.81,1.81,0,0,0,66.59,9.77Z"/><path class="cls-6" d="M73.19,11.18A1.57,1.57,0,0,1,72,10.72a1.87,1.87,0,0,1-.42-1.31V.3a.27.27,0,0,1,.3-.3h.88a.27.27,0,0,1,.3.3v9a.78.78,0,0,0,.14.51.66.66,0,0,0,.48.16l.18,0H74a.23.23,0,0,1,.2.07.46.46,0,0,1,0,.23v.48a.33.33,0,0,1-.07.23.38.38,0,0,1-.23.12A2.88,2.88,0,0,1,73.19,11.18Z"/><path class="cls-6" d="M78.5,11.33a3.41,3.41,0,0,1-2.67-1.07,4.28,4.28,0,0,1-1-3,4.29,4.29,0,0,1,1-3,3.89,3.89,0,0,1,5.34,0,4.29,4.29,0,0,1,1,3,4.28,4.28,0,0,1-1,3A3.41,3.41,0,0,1,78.5,11.33Zm0-1.21c1.41,0,2.12-.94,2.12-2.83s-.71-2.82-2.12-2.82-2.11.94-2.11,2.82S77.09,10.12,78.5,10.12Z"/><path class="cls-6" d="M87.2,11.27a3.43,3.43,0,0,1-2.41-1l-.11.49a.31.31,0,0,1-.34.3h-.65a.27.27,0,0,1-.3-.3V.3a.27.27,0,0,1,.3-.3h.89a.27.27,0,0,1,.3.3V4.22a3.66,3.66,0,0,1,2.43-.95A2.77,2.77,0,0,1,89.6,4.32a4.49,4.49,0,0,1,.84,2.88,4.62,4.62,0,0,1-.88,3A2.87,2.87,0,0,1,87.2,11.27Zm-.34-1.21c1.38,0,2.07-.92,2.07-2.79a3.57,3.57,0,0,0-.51-2.11,1.76,1.76,0,0,0-1.53-.69,3.35,3.35,0,0,0-2,.69V9.35A3.21,3.21,0,0,0,86.86,10.06Z"/><path class="cls-6" d="M93.56,11.29a2.37,2.37,0,0,1-1.7-.6,2.14,2.14,0,0,1-.64-1.63A2.17,2.17,0,0,1,92,7.31a3.2,3.2,0,0,1,2.1-.65A8.12,8.12,0,0,1,96,6.92v-1a1.46,1.46,0,0,0-.37-1.14,1.85,1.85,0,0,0-1.25-.33,7.25,7.25,0,0,0-2,.29,1.72,1.72,0,0,1-.44.11q-.18,0-.18-.27v-.4a.55.55,0,0,1,.06-.29A.62.62,0,0,1,92,3.73a5.3,5.3,0,0,1,1.18-.33,7.58,7.58,0,0,1,1.42-.13,3.15,3.15,0,0,1,2.1.59,2.29,2.29,0,0,1,.67,1.81V10.8a.27.27,0,0,1-.3.3h-.64a.3.3,0,0,1-.33-.29l-.08-.49a4.16,4.16,0,0,1-1.19.72A3.57,3.57,0,0,1,93.56,11.29Zm.36-1.12A3.32,3.32,0,0,0,95,10a3.89,3.89,0,0,0,1-.57V7.88a6.79,6.79,0,0,0-1.59-.2c-1.13,0-1.69.44-1.69,1.3a1.15,1.15,0,0,0,.31.88A1.22,1.22,0,0,0,93.92,10.17Z"/><path class="cls-6" d="M100.67,11.18a1.57,1.57,0,0,1-1.21-.46A1.87,1.87,0,0,1,99,9.41V.3a.27.27,0,0,1,.3-.3h.88a.27.27,0,0,1,.3.3v9a.78.78,0,0,0,.14.51.66.66,0,0,0,.48.16l.18,0h.18a.23.23,0,0,1,.2.07.46.46,0,0,1,0,.23v.48a.33.33,0,0,1-.07.23.38.38,0,0,1-.23.12A2.88,2.88,0,0,1,100.67,11.18Z"/><path class="cls-6" d="M108.14,11.33a5.8,5.8,0,0,1-2.26-.42.67.67,0,0,1-.25-.17.45.45,0,0,1-.07-.28V10c0-.19.06-.27.18-.27a1.33,1.33,0,0,1,.38.08,6.71,6.71,0,0,0,2,.32,1.87,1.87,0,0,0,1.12-.28,1,1,0,0,0,.38-.83.77.77,0,0,0-.23-.58,2.76,2.76,0,0,0-.85-.46l-1.27-.48a2.16,2.16,0,0,1-1.67-2.09,1.91,1.91,0,0,1,.76-1.58,3.11,3.11,0,0,1,2-.6,5.41,5.41,0,0,1,1.9.35.58.58,0,0,1,.26.15.5.5,0,0,1,.07.29v.41c0,.18-.06.27-.19.27a1.3,1.3,0,0,1-.35-.07,5.58,5.58,0,0,0-1.62-.24c-1,0-1.44.32-1.44,1a.81.81,0,0,0,.24.62,3.19,3.19,0,0,0,1,.49l1.16.45a3,3,0,0,1,1.28.82A1.84,1.84,0,0,1,111.05,9a2.07,2.07,0,0,1-.79,1.7A3.34,3.34,0,0,1,108.14,11.33Z"/><path class="cls-6" d="M115.36,11.33a3.62,3.62,0,0,1-2.79-1,4.32,4.32,0,0,1-.95-3,4.28,4.28,0,0,1,.95-3,3.34,3.34,0,0,1,2.64-1.06,2.9,2.9,0,0,1,2.19.8,3.19,3.19,0,0,1,.76,2.28,6.42,6.42,0,0,1-.07,1,.45.45,0,0,1-.1.24.34.34,0,0,1-.22.06h-4.71a2.66,2.66,0,0,0,.64,1.9,2.49,2.49,0,0,0,1.88.62,5.9,5.9,0,0,0,.86-.06,7,7,0,0,0,1-.25l.18-.06.13,0c.13,0,.2.09.2.27v.42a.51.51,0,0,1-.06.28.77.77,0,0,1-.26.17,5.94,5.94,0,0,1-1.07.32A6.62,6.62,0,0,1,115.36,11.33Zm1.44-4.7a3.89,3.89,0,0,0,0-.39,2,2,0,0,0-.43-1.38,1.6,1.6,0,0,0-1.25-.46,1.89,1.89,0,0,0-1.47.56,2.63,2.63,0,0,0-.6,1.67Z"/><path class="cls-6" d="M121,11.18a1.56,1.56,0,0,1-1.21-.46,1.83,1.83,0,0,1-.42-1.31V.3c0-.2.09-.3.29-.3h.89a.27.27,0,0,1,.3.3v9a.78.78,0,0,0,.14.51.65.65,0,0,0,.47.16l.19,0h.18a.24.24,0,0,1,.2.07.46.46,0,0,1,0,.23v.48A.33.33,0,0,1,122,11a.38.38,0,0,1-.23.12A2.88,2.88,0,0,1,121,11.18Z"/><path class="cls-6" d="M124.72,11.18a1.58,1.58,0,0,1-1.22-.46,1.87,1.87,0,0,1-.42-1.31V.3a.27.27,0,0,1,.3-.3h.88a.26.26,0,0,1,.3.3v9a.72.72,0,0,0,.15.51.62.62,0,0,0,.47.16l.19,0h.17c.1,0,.17,0,.2.07a.37.37,0,0,1,.06.23v.48a.39.39,0,0,1-.07.23.46.46,0,0,1-.23.12A2.93,2.93,0,0,1,124.72,11.18Z"/><path class="cls-6" d="M127.59,2.15a1,1,0,0,1-.68-.25.9.9,0,0,1-.24-.65.92.92,0,0,1,.24-.66.94.94,0,0,1,.68-.24,1,1,0,0,1,.69.24.92.92,0,0,1,.24.66.9.9,0,0,1-.24.65A1,1,0,0,1,127.59,2.15Zm-.45,9a.27.27,0,0,1-.3-.3v-7a.26.26,0,0,1,.3-.29H128a.26.26,0,0,1,.3.29v7a.27.27,0,0,1-.3.3Z"/><path class="cls-6" d="M130.34,11.1a.27.27,0,0,1-.3-.3v-7a.26.26,0,0,1,.3-.29H131a.37.37,0,0,1,.23.06.31.31,0,0,1,.11.22l.09.55a4.93,4.93,0,0,1,3-1.06,2.23,2.23,0,0,1,1.67.58,2.27,2.27,0,0,1,.57,1.67V10.8a.27.27,0,0,1-.3.3h-.89a.27.27,0,0,1-.3-.3V6a1.74,1.74,0,0,0-.32-1.17,1.25,1.25,0,0,0-1-.38,4.22,4.22,0,0,0-2.33.76V10.8a.27.27,0,0,1-.3.3Z"/><path class="cls-6" d="M141.11,14.37a5.86,5.86,0,0,1-2.3-.45.53.53,0,0,1-.24-.17.48.48,0,0,1-.06-.28V13c0-.19.06-.27.18-.27a.6.6,0,0,1,.22,0l.35.11a7,7,0,0,0,1.73.25,2.33,2.33,0,0,0,1.76-.58,2.64,2.64,0,0,0,.55-1.85v-.68a3.69,3.69,0,0,1-1.09.67A3.16,3.16,0,0,1,141,11a2.84,2.84,0,0,1-1.67-.49,3,3,0,0,1-1.08-1.33,4.83,4.83,0,0,1-.37-2,4.34,4.34,0,0,1,.86-2.86,2.76,2.76,0,0,1,2.29-1.06,3.34,3.34,0,0,1,2.35.93l.08-.42a.35.35,0,0,1,.11-.22.39.39,0,0,1,.23-.06h.65a.26.26,0,0,1,.3.29v6.85a3.81,3.81,0,0,1-1,2.76A3.66,3.66,0,0,1,141.11,14.37Zm.35-4.6a3.06,3.06,0,0,0,1.84-.69V5.13a3.09,3.09,0,0,0-.92-.5,3,3,0,0,0-1-.16c-1.3,0-1.94.88-1.94,2.65a3.23,3.23,0,0,0,.51,2A1.83,1.83,0,0,0,141.46,9.77Z"/></g></g></svg>