<?xml version="1.0" encoding="UTF-8"?>
<svg width="100px" height="30px" viewBox="0 0 100 30" version="1.1" xmlns="http://www.w3.org/2000/svg" xmlns:xlink="http://www.w3.org/1999/xlink">
    <title>Artboard Copy</title>
    <defs>
        <polygon id="path-1" points="0.00565503599 0.142551902 48.1862018 0.142551902 48.1862018 11 0.00565503599 11"></polygon>
        <polygon id="path-3" points="0.8975 0.1527 13.552 0.1527 13.552 17.3897 0.8975 17.3897"></polygon>
    </defs>
    <g id="Artboard-Copy" stroke="none" stroke-width="1" fill="none" fill-rule="evenodd">
        <g id="Group-19">
            <g id="Group-3" transform="translate(14.000000, 19.000000)">
                <mask id="mask-2" fill="white">
                    <use xlink:href="#path-1"></use>
                </mask>
                <g id="Clip-2"></g>
                <path d="M47.7602,4.4612 C41.9762,8.7302 33.5912,11.0002 26.3692,11.0002 C16.2492,11.0002 7.1352,7.2592 0.2392,1.0322 C-0.3018,0.5432 0.1812,-0.1248 0.8322,0.2542 C8.2722,4.5832 17.4742,7.1902 26.9772,7.1902 C33.3882,7.1902 40.4352,5.8602 46.9192,3.1102 C47.8972,2.6952 48.7172,3.7542 47.7602,4.4612" id="Fill-1" fill="#FF9900" mask="url(#mask-2)"></path>
            </g>
            <path d="M64.167,20.7132 C63.427,19.7672 59.277,20.2652 57.412,20.4882 C56.848,20.5562 56.76,20.0622 57.269,19.7052 C60.58,17.3792 66.005,18.0512 66.636,18.8292 C67.271,19.6142 66.469,25.0542 63.366,27.6502 C62.889,28.0492 62.435,27.8362 62.646,27.3092 C63.345,25.5652 64.908,21.6612 64.167,20.7132" id="Fill-4" fill="#FF9900"></path>
            <path d="M57.5434,3.2766 L57.5434,1.0166 C57.5454,0.6726 57.8044,0.4436 58.1164,0.4446 L68.2444,0.4436 C68.5684,0.4436 68.8284,0.6796 68.8284,1.0136 L68.8284,2.9526 C68.8254,3.2776 68.5514,3.7016 68.0654,4.3746 L62.8194,11.8646 C64.7674,11.8196 66.8264,12.1116 68.5964,13.1056 C68.9954,13.3296 69.1024,13.6616 69.1334,13.9876 L69.1334,16.3986 C69.1334,16.7306 68.7704,17.1156 68.3874,16.9156 C65.2704,15.2826 61.1334,15.1036 57.6874,16.9346 C57.3344,17.1226 56.9664,16.7436 56.9664,16.4106 L56.9664,14.1196 C56.9664,13.7526 56.9734,13.1256 57.3434,12.5656 L63.4214,3.8456 L58.1284,3.8456 C57.8054,3.8456 57.5454,3.6156 57.5434,3.2766" id="Fill-6" fill="#FFFFFF"></path>
            <path d="M77.5473,0.1526 C82.1203,0.1526 84.5933,4.0806 84.5933,9.0716 C84.5933,13.8956 81.8613,17.7236 77.5473,17.7236 C73.0603,17.7236 70.6153,13.7966 70.6153,8.9046 C70.6153,3.9796 73.0893,0.1526 77.5473,0.1526 M77.5753,3.3816 C75.3033,3.3816 75.1592856,6.4746 75.1592856,8.4056 C75.1592856,10.3356 75.1313,14.4616 77.5473,14.4616 C79.9343,14.4616 80.0493,11.1336 80.0493,9.1046 C80.0493,7.7736 79.9913,6.1756 79.5883,4.9116 C79.2433,3.8126 78.5533,3.3816 77.5753,3.3816" id="Fill-8" fill="#FFFFFF"></path>
            <path d="M49.4707,9.8382 C49.4707,11.0392 49.4997,12.0392 48.8947,13.1072 C48.4047,13.9732 47.6267,14.5072 46.7617,14.5072 C45.5807,14.5072 44.8877,13.6072 44.8877,12.2732 C44.8877,9.6492 47.2427,9.1712 49.4707,9.1712 L49.4707,9.8382 Z M52.5777,17.3512 C52.3737,17.5332 52.0017,17.5392 51.8497,17.4222 C50.7967,16.6082 50.0837,15.3692 50.0837,15.3692 C48.3917,17.0922 47.1947,17.6092 45.0037,17.6092 C42.4097,17.6092 40.3917,16.0082 40.3917,12.8072 C40.3917,10.3052 41.7467,8.6052 43.6777,7.7712 C45.3487,7.0362 47.6847,6.9032 49.4707,6.7032 C49.4707,6.7032 49.6197,4.7732 49.0967,4.0682 C48.6907,3.5232 48.0007,3.2682 47.3677,3.2682 C46.2237,3.2632 45.1197,3.8852 44.9007,5.0812 C44.8387,5.4232 44.5857,5.7102 44.3197,5.6812 L41.3687,5.3612 C41.1427,5.3352 40.8367,5.1032 40.9087,4.7172 C41.5957,1.0942 44.8667,0.0002 47.7997,0.0002 C49.2987,0.0002 51.2587,0.4002 52.4397,1.5342 C53.9387,2.9352 53.7947,4.8032 53.7947,6.8372 L53.7947,11.6372 C53.7947,13.0812 54.3947,13.7142 54.9577,14.4922 C55.1537,14.7732 55.1987,15.1062 54.9477,15.3112 C54.3177,15.8392 52.5777,17.3512 52.5777,17.3512 L52.5777,17.3512 Z" id="Fill-10" fill="#FFFFFF"></path>
            <path d="M9.0791,9.8382 C9.0791,11.0392 9.1081,12.0392 8.5021,13.1072 C8.0131,13.9732 7.2341,14.5072 6.3701,14.5072 C5.1881,14.5072 4.4961,13.6072 4.4961,12.2732 C4.4961,9.6492 6.8501,9.1712 9.0791,9.1712 L9.0791,9.8382 Z M12.1851,17.3512 C11.9821,17.5332 11.6091,17.5392 11.4571,17.4222 C10.4051,16.6082 9.6911,15.3692 9.6911,15.3692 C8.0001,17.0922 6.8021,17.6092 4.6121,17.6092 C2.0171,17.6092 0.0001,16.0082 0.0001,12.8072 C0.0001,10.3052 1.3541,8.6052 3.2861,7.7712 C4.9571,7.0362 7.2921,6.9032 9.0791,6.7032 C9.0791,6.7032 9.2281,4.7732 8.7041,4.0682 C8.2991,3.5232 7.6091,3.2682 6.9751,3.2682 C5.8321,3.2632 4.7281,3.8852 4.5091,5.0812 C4.4461,5.4232 4.1941,5.7102 3.9281,5.6812 L0.9771,5.3612 C0.7511,5.3352 0.4441,5.1032 0.5171,4.7172 C1.2031,1.0942 4.4751,0.0002 7.4071,0.0002 C8.9061,0.0002 10.8661,0.4002 12.0481,1.5342 C13.5461,2.9352 13.4031,4.8032 13.4031,6.8372 L13.4031,11.6372 C13.4031,13.0812 14.0021,13.7142 14.5651,14.4922 C14.7621,14.7732 14.8071,15.1062 14.5561,15.3112 C13.9261,15.8392 12.1851,17.3512 12.1851,17.3512 L12.1851,17.3512 Z" id="Fill-12" fill="#FFFFFF"></path>
            <path d="M21.1963,8.4388 C21.1963,6.6088 21.1093,4.0808 23.3243,4.0808 C25.5093,4.0808 25.2223,6.6748 25.2223,8.4388 L25.2253,16.8228 C25.2253,17.1258 25.4693,17.3708 25.7793,17.3898 L28.8563,17.3898 C29.1843,17.3898 29.4503,17.1368 29.4503,16.8218 L29.4503,8.4388 C29.4503,7.5398 29.4223,6.2098 29.7383,5.4108 C30.0543,4.6118 30.8313,4.1128 31.5793,4.1128 C32.4703,4.1128 33.1603,4.4128 33.3903,5.4778 C33.5343,6.1098 33.4773,7.7738 33.4773,8.4388 L33.4783,16.8228 C33.4783,17.1258 33.7213,17.3708 34.0303,17.3898 L37.1083,17.3898 C37.4373,17.3898 37.7023,17.1368 37.7023,16.8218 L37.7053,6.8408 C37.7053,5.1438 37.9063,3.2138 36.9283,1.8828 C36.0663,0.6858 34.6563,0.1528 33.3623,0.1528 C31.5503,0.1528 29.8533,1.0848 29.1053,3.0818 C28.2423,1.0848 27.0343,0.1528 25.1073,0.1528 C23.2093,0.1528 21.8003,1.0848 21.0523,3.0818 L20.9943,3.0818 L20.9943,1.0618 C20.9943,0.7438 20.7373,0.4868 20.4193,0.4868 L17.5443,0.4868 C17.2263,0.4868 16.9683,0.7438 16.9683,1.0618 L16.9683,16.8148 C16.9683,17.1318 17.2263,17.3898 17.5443,17.3898 L20.6203,17.3898 C20.9383,17.3898 21.1963,17.1318 21.1963,16.8148 L21.1963,8.4388 Z" id="Fill-14" fill="#FFFFFF"></path>
            <g id="Group-18" transform="translate(86.000000, 0.000000)">
                <mask id="mask-4" fill="white">
                    <use xlink:href="#path-3"></use>
                </mask>
                <g id="Clip-17"></g>
                <path d="M5.1255,16.8147 C5.1255,17.1317 4.8685,17.3897 4.5495,17.3897 L1.4735,17.3897 C1.1555,17.3897 0.8975,17.1317 0.8975,16.8147 L0.8975,1.0617 C0.8975,0.7437 1.1555,0.4867 1.4735,0.4867 L4.3175,0.4867 C4.6515,0.4867 4.8935,0.7547 4.8935,0.9357 L4.8935,3.3477 L4.9535,3.3477 C5.8165,1.1837 7.0235,0.1527 9.1515,0.1527 C10.5325,0.1527 11.8845,0.6517 12.7475,2.0167 C13.5525,3.2807 13.5525,5.4107 13.5525,6.9417 L13.5525,16.8927 C13.5185,17.1717 13.2665,17.3897 12.9615,17.3897 L9.8735,17.3897 C9.5875,17.3717 9.3575,17.1627 9.3245,16.8927 L9.3305,7.3367 C9.3305,4.1397 8.1045,4.0457 7.3975,4.0457 C6.5755,4.0457 5.9145,4.6877 5.6255,5.2877 C5.1935,6.2527 5.1255,7.2407 5.1255,8.3057 L5.1255,16.8147 Z" id="Fill-16" fill="#FFFFFF" mask="url(#mask-4)"></path>
            </g>
        </g>
    </g>
</svg>