<svg width="173" height="54" viewBox="0 0 173 54" xmlns="http://www.w3.org/2000/svg"><defs><linearGradient x1="61.023%" y1="4.946%" x2="26.466%" y2="71.879%" id="a"><stop stop-color="#00A0FF" offset="0%"/><stop stop-color="#00A1FF" offset="1%"/><stop stop-color="#00BEFF" offset="26%"/><stop stop-color="#00D2FF" offset="51%"/><stop stop-color="#00DFFF" offset="76%"/><stop stop-color="#00E3FF" offset="100%"/></linearGradient><linearGradient x1="107.685%" y1="50%" x2="-130.64%" y2="50%" id="b"><stop stop-color="#FFE000" offset="0%"/><stop stop-color="#FFBD00" offset="41%"/><stop stop-color="orange" offset="78%"/><stop stop-color="#FF9C00" offset="100%"/></linearGradient><linearGradient x1="86.271%" y1="30.929%" x2="-50.18%" y2="135.854%" id="c"><stop stop-color="#FF3A44" offset="0%"/><stop stop-color="#C31162" offset="100%"/></linearGradient><linearGradient x1="-18.825%" y1="-11.727%" x2="42.086%" y2="35.123%" id="d"><stop stop-color="#32A071" offset="0%"/><stop stop-color="#2DA771" offset="7%"/><stop stop-color="#15CF74" offset="48%"/><stop stop-color="#06E775" offset="80%"/><stop stop-color="#00F076" offset="100%"/></linearGradient></defs><g fill="none" fill-rule="evenodd"><g fill-rule="nonzero"><g transform="translate(2 2)"><rect stroke="#979797" stroke-width="1.25" fill="#000" x="-.625" y="-.625" width="170.25" height="51.25" rx="10"/><path d="M59.363 12.8a3.397 3.397 0 01-.94 2.5 3.633 3.633 0 01-2.753 1.1 3.758 3.758 0 01-2.767-1.125 3.747 3.747 0 01-1.139-2.775 3.747 3.747 0 011.14-2.787A3.96 3.96 0 0157.21 8.9a3.18 3.18 0 011.176.838l-.663.662a2.505 2.505 0 00-2.053-.9 2.906 2.906 0 00-2.098.88 2.898 2.898 0 00-.819 2.12 2.95 2.95 0 001.781 2.75 2.958 2.958 0 003.226-.588c.391-.414.618-.956.639-1.525h-2.73v-.9h3.644c.028.187.044.375.05.563zM65.096 9.675h-3.38v2.375h3.08v.9h-3.08v2.375h3.38v.925H60.74v-7.5h4.356zM69.202 16.25h-.964V9.675h-2.103V8.75h5.22v.925h-2.153zM75.036 16.25v-7.5H76v7.5zM80.281 16.25h-.964V9.675h-2.103V8.75h5.158v.925h-2.09zM92.149 15.275a3.896 3.896 0 01-5.508 0 3.747 3.747 0 01-1.102-2.775 3.747 3.747 0 011.102-2.775 3.67 3.67 0 012.754-1.137 3.758 3.758 0 012.754 1.137A3.834 3.834 0 0193.25 12.5a3.747 3.747 0 01-1.101 2.775h0zm-4.795-.625a2.869 2.869 0 004.081 0c.56-.573.863-1.35.839-2.15a2.948 2.948 0 00-.889-2.15 2.869 2.869 0 00-4.08 0 2.947 2.947 0 00-.79 2.15c-.024.8.279 1.577.84 2.15h0zM94.615 16.25v-7.5h1.164l3.656 5.838h0V8.75h.964v7.5h-1.002l-3.818-6.113h0V16.25z" stroke="#FFF" stroke-width=".5" fill="#FFF"/><path d="M85.301 27.188a5.329 5.329 0 00-5.32 5.337 5.329 5.329 0 005.345 5.312 5.329 5.329 0 005.32-5.337 5.233 5.233 0 00-1.544-3.788 5.25 5.25 0 00-3.8-1.524zm0 8.537a3.23 3.23 0 01-3.14-1.827 3.221 3.221 0 01.55-3.587 3.233 3.233 0 013.543-.806 3.225 3.225 0 012.052 2.995 3.072 3.072 0 01-.821 2.245 3.082 3.082 0 01-2.184.98zm-11.667-8.538a5.329 5.329 0 00-5.32 5.338 5.329 5.329 0 005.345 5.312 5.329 5.329 0 005.32-5.337 5.233 5.233 0 00-1.544-3.788 5.25 5.25 0 00-3.801-1.524zm0 8.538a3.23 3.23 0 01-3.14-1.827 3.221 3.221 0 01.55-3.587 3.233 3.233 0 013.543-.806 3.225 3.225 0 012.051 2.995 3.072 3.072 0 01-.82 2.245 3.082 3.082 0 01-2.184.98zm-13.87-6.9v2.25h5.407a4.71 4.71 0 01-1.251 2.838 5.538 5.538 0 01-4.182 1.65 6.004 6.004 0 01-6.009-6c0-3.314 2.69-6 6.01-6a5.813 5.813 0 014.105 1.612l1.59-1.588a7.893 7.893 0 00-5.67-2.274 8.278 8.278 0 00-7.434 4.032 8.252 8.252 0 000 8.447 8.278 8.278 0 007.433 4.033 7.605 7.605 0 005.771-2.313 7.494 7.494 0 001.953-5.287 7.826 7.826 0 00-.112-1.4h-7.612zm56.72 1.75a5.007 5.007 0 00-4.556-3.388 5.011 5.011 0 00-3.656 1.574 4.996 4.996 0 00-1.351 3.739 5.288 5.288 0 003.748 5.106 5.3 5.3 0 005.966-2.144l-1.815-1.25a3.018 3.018 0 01-2.617 1.463 2.692 2.692 0 01-2.578-1.612l7.123-2.938-.263-.55zm-7.26 1.775a2.922 2.922 0 01.741-2.142 2.931 2.931 0 012.05-.97c.825-.05 1.6.397 1.966 1.137l-4.757 1.975zm-5.783 5.15h2.34V21.875h-2.34V37.5zm-3.831-9.125h-.088a3.683 3.683 0 00-2.804-1.188 5.328 5.328 0 00-5.075 5.32 5.328 5.328 0 005.075 5.318 3.608 3.608 0 002.804-1.25h.088v.762c0 2.038-1.09 3.125-2.842 3.125a2.954 2.954 0 01-2.691-1.887l-2.028.837a5.007 5.007 0 004.72 3.15c2.74 0 5.007-1.612 5.007-5.537V27.5H99.61v.875zm-2.692 7.35a3.227 3.227 0 01-3.028-3.219 3.227 3.227 0 013.028-3.218c.81.034 1.571.396 2.11 1.002.538.605.806 1.403.745 2.21a2.972 2.972 0 01-.737 2.222c-.539.61-1.304.972-2.118 1.003zm30.533-13.85h-5.608V37.5h2.34v-5.925h3.268a4.872 4.872 0 004.507-2.319 4.856 4.856 0 000-5.062 4.872 4.872 0 00-4.507-2.319zm0 7.5h-3.267V24.05h3.317a2.677 2.677 0 012.68 2.675c0 1.477-1.2 2.675-2.68 2.675l-.05-.025zm14.446-2.238a4.37 4.37 0 00-4.168 2.388l2.065.863a2.23 2.23 0 012.141-1.138 2.256 2.256 0 012.504 2.012v.15a5.239 5.239 0 00-2.441-.6c-2.229 0-4.507 1.25-4.507 3.525a3.61 3.61 0 001.217 2.543c.734.647 1.7.97 2.676.895a3.319 3.319 0 002.98-1.525h.075v1.25h2.253v-6.012c0-2.738-2.078-4.325-4.745-4.325l-.05-.026zm-.288 8.563c-.763 0-1.827-.388-1.827-1.325 0-1.25 1.327-1.675 2.503-1.675a4.161 4.161 0 012.129.525 2.828 2.828 0 01-2.754 2.5l-.05-.025zm13.295-8.2l-2.679 6.775h-.075l-2.779-6.775h-2.504l4.169 9.475-2.379 5.262h2.504l6.347-14.737h-2.604zm-21.031 10h2.328V21.875h-2.328V37.5z" fill="#FFF"/><path d="M13.07 9.425a2.498 2.498 0 00-.551 1.75v27.65a2.423 2.423 0 00.588 1.75l.088.1 15.472-15.487v-.375L13.157 9.338l-.088.087z" fill="url(#a)"/><path d="M33.8 30.35l-5.133-5.163v-.375L33.8 19.65l.113.075 6.146 3.475c1.753.988 1.753 2.613 0 3.613l-6.121 3.475-.138.062z" fill="url(#b)"/><path d="M33.95 30.288L28.667 25 13.07 40.575a2.03 2.03 0 002.592.087l18.29-10.374" fill="url(#c)"/><path d="M33.95 19.725L15.66 9.35a2.018 2.018 0 00-2.59.075L28.666 25l5.283-5.275z" fill="url(#d)"/><path d="M33.8 30.163L15.66 40.474a2.08 2.08 0 01-2.503 0l-.088.087.088.1a2.08 2.08 0 002.504 0l18.29-10.374-.151-.125z" fill="#000" opacity=".2"/><path d="M13.07 40.4a2.498 2.498 0 01-.551-1.762v.187a2.423 2.423 0 00.588 1.75l.088-.088-.126-.087zM40.06 26.625l-6.26 3.538.113.125 6.146-3.488a2.188 2.188 0 001.327-1.8 2.326 2.326 0 01-1.327 1.625z" fill="#000" opacity=".12"/><path d="M15.66 9.525l24.4 13.85c.675.3 1.167.904 1.326 1.625a2.188 2.188 0 00-1.327-1.8L15.661 9.35c-1.74-1-3.142-.175-3.142 1.825v.188c0-2 1.402-2.825 3.142-1.838z" fill="#FFF" opacity=".25"/></g></g></g></svg>