<svg xmlns="http://www.w3.org/2000/svg" viewBox="0 0 1058.87 678.43"><defs><style>.cls-1{opacity:0.1;}.cls-2{fill:#2c6f80;}.cls-3{fill:#0f2e35;}.cls-12,.cls-13,.cls-18,.cls-19,.cls-20,.cls-22,.cls-26,.cls-27,.cls-4,.cls-7,.cls-8{fill:none;stroke-linejoin:round;}.cls-19,.cls-27,.cls-4,.cls-7,.cls-8{stroke:#0f2e35;}.cls-12,.cls-13,.cls-18,.cls-19,.cls-20,.cls-4,.cls-7,.cls-8{stroke-linecap:round;}.cls-4{stroke-width:18px;}.cls-5{fill:#24525c;}.cls-6{fill:#1b434b;}.cls-7{stroke-width:2px;}.cls-8{stroke-width:44px;}.cls-9{fill:#97c4c9;}.cls-10{fill:#00464f;}.cls-11{fill:#071b20;}.cls-12{stroke:#1c4a53;}.cls-13{stroke:#041317;}.cls-14{fill:#cead2d;}.cls-15{fill:#ecd69a;}.cls-16{fill:#649ea4;}.cls-17{fill:#f4d046;}.cls-18{stroke:#cead2d;}.cls-18,.cls-20{stroke-width:2px;}.cls-20{stroke:#649ea4;}.cls-21{fill:#378093;}.cls-22{stroke:#dff2f2;}.cls-23{fill:#aab7b8;}.cls-24{fill:#95a2a3;}.cls-25{fill:#f90;}.cls-26{stroke:#368093;}.cls-28{fill:#fff;}</style></defs><g id="Layer_2" data-name="Layer 2"><g id="Layer_2-2" data-name="Layer 2"><g class="cls-1"><g id="Layer47_0_FILL" data-name="Layer47 0 FILL"><path class="cls-2" d="M997,466.57Q1106.47,410.1,1022.3,276T810.85,108.49Q683.5,75.11,509.5,125.92T240.1,221.35A1319.91,1319.91,0,0,0,55.35,326.85Q-33.93,387.78,20.8,451.3t460.7,67.6Q887.45,523,997,466.57m-854.65,183q-18.3,7.37,48.35,19.15T502.15,678q244.74-2.44,326.35-7.72t93.4-14.43q11.75-9.2-111.65-15.79T551.8,634q-135.06.57-263.15,4.36T142.3,649.54Z"/></g></g></g><g id="Layer_7" data-name="Layer 7"><g id="Layer44_0_FILL" data-name="Layer44 0 FILL"><path class="cls-3" d="M526.42,356.25H521q-4.61,32.4-11.1,69.1l148.25-7q8.55-.19,9.9-9.4,27.26-76.2,25.8-159.75-1.46-58.09-64.65-63.3l-11.4-.5h6q-6.1-.4-11.85-.35c-2.93,0-5.78,0-8.55.2q-69.4,3.25-71.85,61.25-1.75,47-10.55,109.7Z"/></g><path id="Layer44_0_1_STROKES" data-name="Layer44 0 1 STROKES" class="cls-4" d="M521,356.25h-19.4v42.3m24.85-42.3H521m-19.4,0h-9.2"/><g id="Layer44_1_MEMBER_0_MEMBER_0_MEMBER_0_FILL" data-name="Layer44 1 MEMBER 0 MEMBER 0 MEMBER 0 FILL"><path class="cls-5" d="M576.1,446.88l21,3.05v54.76h-5V586.3h-11V504.69h-5Z"/></g><g id="Layer44_2_MEMBER_0_MEMBER_0_MEMBER_0_FILL" data-name="Layer44 2 MEMBER 0 MEMBER 0 MEMBER 0 FILL"><path class="cls-3" d="M637.1,425.31a7.94,7.94,0,0,1-3,6.36,9.85,9.85,0,0,1-7,2.63h-30v15.63l-21-3.05V434.3H553.7a10.41,10.41,0,0,1-7.16-2.63,8.12,8.12,0,0,1-2.8-6.36,7.83,7.83,0,0,1,2.8-6.09,10.47,10.47,0,0,1,7.16-2.77h73.44a10.31,10.31,0,0,1,7,2.77A7.67,7.67,0,0,1,637.1,425.31Z"/></g><g id="Layer44_3_MEMBER_0_MEMBER_0_MEMBER_0_FILL" data-name="Layer44 3 MEMBER 0 MEMBER 0 MEMBER 0 FILL"><path class="cls-6" d="M664.65,625.69a10.87,10.87,0,0,1-3.12,7.47,9.92,9.92,0,0,1-7.31,3,10.13,10.13,0,0,1-7.47-3,10.91,10.91,0,0,1-3.11-7.47,10.62,10.62,0,0,1,10.58-10.58,10,10,0,0,1,7.31,3.11,10.19,10.19,0,0,1,3.12,7.47M527.4,618.22a10.22,10.22,0,0,1,3.11,7.47,10.91,10.91,0,0,1-3.11,7.47,10.13,10.13,0,0,1-7.47,3,9.92,9.92,0,0,1-7.31-3,10.16,10.16,0,0,1-3.12-7.47,9.85,9.85,0,0,1,3.12-7.47,10,10,0,0,1,7.31-3.11,10.22,10.22,0,0,1,7.47,3.11M576,625.69a10.62,10.62,0,0,1,10.58-10.58,10,10,0,0,1,7.31,3.11,10.19,10.19,0,0,1,3.12,7.47,10.87,10.87,0,0,1-3.12,7.47,9.94,9.94,0,0,1-7.31,3,10.13,10.13,0,0,1-7.47-3A10.91,10.91,0,0,1,576,625.69Z"/></g><path id="Layer44_4_MEMBER_0_MEMBER_0_1_STROKES" data-name="Layer44 4 MEMBER 0 MEMBER 0 1 STROKES" class="cls-7" d="M654.35,609.15q-27.84-10.74-61.3-11.67l-12.14-.16q-34.23.63-63.18,11.83"/><path id="Layer43_0_1_STROKES" data-name="Layer43 0 1 STROKES" class="cls-8" d="M658.92,406.85H493.32"/></g><g id="Layer_1-2" data-name="Layer 1"><g id="Layer41_0_FILL" data-name="Layer41 0 FILL"><path class="cls-9" d="M529,630.3q-.48-10.86-1.45-22.25-.49-5.58-1.1-11.35Q524.58,579.15,524,574t-3.55-37.7l-32.9,13.45q9.84,26.07,21.6,58.4,4.41,12.14,9.1,25.15,10.92-1.18,11-2.5A.61.61,0,0,0,529,630.3Z"/><path class="cls-10" d="M465.62,409.15a3.51,3.51,0,0,0-.55.05,20.22,20.22,0,0,0-5.35.7q-18.74,4-17.85,19v.4a10,10,0,0,0,.15,1.6,14.93,14.93,0,0,0,.55,2.55l.25.25q11.42,31.69,23.55,61.7,8.78,21.58,21.2,54.35l32.9-13.45q-3.69-27.78-8.55-44.65-17.61-54.35-24.95-69l-.15-.7q-7.87-11.72-18.85-12.65a6.33,6.33,0,0,0-1.15-.05A10,10,0,0,0,465.62,409.15Z"/></g><g id="Layer40_0_FILL" data-name="Layer40 0 FILL"><path class="cls-10" d="M459.17,442.25l.15.1q51.6-8.3,71.9-16c.37-.17,1-.4,1.8-.7l24.65-10.15q22.4-9.65,28.65-33.9a42.83,42.83,0,0,0,.4-20.6c-.8-2.83-1.55-5.37-2.25-7.6-.57-1.53-1.08-3-1.55-4.35q-5.89-14.36-15-13.9l-1.7.05a100.77,100.77,0,0,0-24.65,6.35q-12,6.11-25.1,13.45-30.41,17.29-66,40.9l-.3.05q-7.5,6.11-7.15,16.95a41,41,0,0,0,1.5,9.55,62.42,62.42,0,0,0,2.65,9.05Q451.72,442.54,459.17,442.25Z"/></g><g id="Layer39_0_FILL" data-name="Layer39 0 FILL"><path class="cls-9" d="M497.67,639.7q3.9,5.4,32.35-18.7-6.3-7.2-14.55-.65Q511.27,621.06,497.67,639.7Z"/><path class="cls-3" d="M530,621q-28.45,24.11-32.35,18.7-.15.25-3.55,5.25-3.4,4.8-2.45,8.15t19.85-7.75q18.9-11,22.85-16.7Q535.23,626.36,530,621Z"/></g><g id="Layer38_0_FILL" data-name="Layer38 0 FILL"><path class="cls-11" d="M626.47,13.3A52.05,52.05,0,0,0,620.12,12c-.23.43-.45.88-.65,1.35a22.12,22.12,0,0,0-1.8,9,21.34,21.34,0,0,0,6.55,15.75,22.16,22.16,0,0,0,31,.5Q645.27,18.65,626.47,13.3Z"/><path class="cls-3" d="M620.12,12a52.05,52.05,0,0,1,6.35,1.35q18.79,5.36,28.8,25.25l.5-.5a21.45,21.45,0,0,0,6.5-15.75,22.39,22.39,0,0,0-1.8-9,23.13,23.13,0,0,0-4.7-6.8,22.39,22.39,0,0,0-31.55,0A23.62,23.62,0,0,0,620.12,12Z"/></g><g id="Layer37_0_FILL" data-name="Layer37 0 FILL"><path class="cls-3" d="M564.32,124.8a54.86,54.86,0,0,0,1.7,16.4l97.5,5.05q.4-10.91-9.95-21.15a30.52,30.52,0,0,1-9.4-24.85q1.76,16,14.35,24.45t13.65,22l14.9.8q-.15-21.5-10.3-33,15,13.5,15.35,33.25l4.4.2q-4.31-30.15-28.2-42.4T651.62,72.4q7.2-20.85-13.4-39.3t-28-4.9A58.91,58.91,0,0,0,603,56.55q0,14.74-30.45,30T530,140.25l10.95-.35q8-20.59,17.4-32.3a106.31,106.31,0,0,0-13.55,32.55h14.6a62.2,62.2,0,0,1,5-15.35m10.75,12.45q-.55-20.4,17.15-36.95-17.7,16.55-17.15,37m-22.35-2.6q6.25-23.29,23.2-36.9-16.95,13.6-23.2,36.9m33.5-4.3a77.9,77.9,0,0,1,12-34.35,77.9,77.9,0,0,0-12,34.35m96.15,12.9q-.79-16.31-11.15-24.9,10.35,8.59,11.15,24.9m-30.9-37.8q4.2,10.5,15,18.15t9.85,23.05q1.05-15.4-9.85-23.05T651.47,105.45Z"/></g><path id="Layer37_0_1_STROKES" data-name="Layer37 0 1 STROKES" class="cls-12" d="M552.72,134.65q6.25-23.29,23.2-36.9m75.55,7.7q4.2,10.5,15,18.15t9.85,23.05"/><path id="Layer37_0_2_STROKES" data-name="Layer37 0 2 STROKES" class="cls-13" d="M575.07,137.25q-.55-20.4,17.15-36.95m-6,30.05a77.9,77.9,0,0,1,12-34.35m84.15,47.25q-.79-16.31-11.15-24.9"/><g id="Layer36_0_FILL" data-name="Layer36 0 FILL"><path class="cls-9" d="M625.72,203.65l-5.4-48.5L579.77,152l-12.55,45.2Z"/><path class="cls-14" d="M602.52,133.8a108.38,108.38,0,0,0-19.35,1.85l-4.7,8.55,1.3,7.8,40.55,3.15.3-12.55-4.85-7.7A75.07,75.07,0,0,0,602.52,133.8Z"/></g><g id="Layer35_0_FILL" data-name="Layer35 0 FILL"><path class="cls-9" d="M564.47,231.6l.15-.1q17.1-54.6,14.25-65.5-2.85-11.3-13.6-12.55-22.54-7.84-33,106.8-3,30,7.65,25.45T552.67,272Z"/><path class="cls-15" d="M574,235v.2l.2-.25Z"/></g><g id="Layer34_0_FILL" data-name="Layer34 0 FILL"><path class="cls-9" d="M502.82,287.5a59.13,59.13,0,0,1-5.15,5.35,10.28,10.28,0,0,0-1.95,3.8,3.25,3.25,0,0,0,1.5,4.6,14.13,14.13,0,0,0,6.45,1.85l30.9-10.45q7.7-2.36,14-4.65a23.66,23.66,0,0,0,10.15-6.5q3.64-4.25-3.2-11.15a81.84,81.84,0,0,0-11.8-10.3q-5-3.35-15,4.75T512.92,278A110.92,110.92,0,0,0,502.82,287.5Z"/></g><g id="Layer28_0_FILL" data-name="Layer28 0 FILL"><path class="cls-9" d="M427.47,488.35l-33.05-25.3q-12.1,43.76-25.25,92.9-2.3,8.55-4.6,17.25c1.93.63,3.6,1.17,5,1.6q7.31,1.91,8.4-1.15a2.91,2.91,0,0,0,.1-1.55Z"/><path class="cls-10" d="M449.57,345.85q-18.75-3-23.25,12.15-16.05,47.81-31.9,105.05l33.05,25.3,20.25-34.25a24.39,24.39,0,0,0,2-4.55q6.94-18.35,17.5-86.55Q463.32,348.11,449.57,345.85Z"/></g><g id="Layer26_0_FILL" data-name="Layer26 0 FILL"><path class="cls-10" d="M426.07,366.5a26,26,0,0,0-.25,3.65q0,14.21,15.65,18.75l.55.1q84.56,18,149.55,26.7a238.86,238.86,0,0,0,38.35-.35l2.45-.3q15.6-2.35,19.7-20.5a57.79,57.79,0,0,0,1.1-7.2c.13-1.73.2-3.38.2-5q0-21.15-17.3-29.85a52.47,52.47,0,0,0-9.25-3.5,57.14,57.14,0,0,0-8.5-1.55l-.2.1q-23.75-2.66-45.65-4.35-9.6-.86-18.8-1.4-32.05-2-110.85,3.2l-.15.15q-12.71,1.65-15.75,15.45A52.9,52.9,0,0,0,426.07,366.5Z"/></g><g id="Layer25_0_FILL" data-name="Layer25 0 FILL"><path class="cls-9" d="M377.77,574.9c-.2-.1-.43-.62-.7-1.55a7.85,7.85,0,0,0-2.25-3.1q-8.25-4.1-19.65,5.75l-11.9,8.2q1.91,3.79,19.5-.9T377.77,574.9Z"/><path class="cls-3" d="M373.07,585.15q5.81-3.3,6.5-5.95a3.69,3.69,0,0,0-1.8-4.3q2.5,3.71-15,8.4t-19.5.9h0q-10.5,4.35-9.4,6.7c.67,1.57,3.13,2.32,7.4,2.25a82,82,0,0,0,16.3-2.35A62.16,62.16,0,0,0,373.07,585.15Z"/></g><g id="Layer24_0_FILL" data-name="Layer24 0 FILL"><path class="cls-9" d="M614.92,130.55q.75-8,1.5-13.05-9.79,6.85-24.15,7.7-4.15,7.8-12.75,24.25-27.71,24.9-31.1,34.05a5.26,5.26,0,0,0-.45,1.75,2.27,2.27,0,0,0-.05.5,2.58,2.58,0,0,0,2.25,2.6q3.65.94,13.8-2.25,13.24,13,23.45,13.15,13.16-.1,20.35-22.05.65-2.25,1.4-4.7Q613.52,156,614.92,130.55Z"/><path class="cls-16" d="M594.87,120.15l-2.6,5q14.36-.86,24.15-7.7c.27-2,.55-3.72.85-5a173.73,173.73,0,0,1,9.05-30.65q2.89-7,5.5-12.6l-8.1-7-11.4,10.1q-1.8,11.9-8.2,27.9Q600.07,109.75,594.87,120.15Z"/></g><g id="Layer23_0_FILL" data-name="Layer23 0 FILL"><path class="cls-14" d="M587.07,208.6q-15.9-7.35-33.9-3.15.5,5.1-6.45,43a365.66,365.66,0,0,0,40.35-39.8m56.5-15.3q16.39-36.5,6-44.55-48,58.84-12.65,114.15Q627.63,228.81,643.57,193.3Z"/><path class="cls-17" d="M583.12,135.3l-4.65,7-11.85,4.2q-6.9,2.4-10.7,13.05-3.55,9.94-12.3,23.8a20.33,20.33,0,0,0-2.85,6.9l-.1.95q-.45,8.55,12.25,13.9h.2a1.63,1.63,0,0,0,0,.35q18-4.2,33.9,3.15a365.66,365.66,0,0,1-40.35,39.8l-17.15,94.2q27.49,8.5,50.4,13.9,9.64,2.21,18.45,3.9,38.9,7.46,59.9,8.85-3.9-59-18.4-97.35c-1.13-3-2.12-6-2.95-9q-35.29-55.3,12.65-114.15a10.33,10.33,0,0,0-2.45-1.4L620.62,141l-4.85-6.3L587.47,168l-4.35-32.65M579,145.05l4.25,23.1L579,145.05m39.25-1.5L593.67,170.3Z"/></g><path id="Layer23_0_1_STROKES" data-name="Layer23 0 1 STROKES" class="cls-18" d="M579,145.05l4.25,23.1m35-24.6L593.67,170.3"/><g id="Layer22_0_FILL" data-name="Layer22 0 FILL"><path class="cls-9" d="M593.52,18.75Q554.33,23.15,560.17,43t3.35,35.75q-2.5,15.9,2.25,22.15a166.3,166.3,0,0,0,15,16.45q10.24,10.16,27.15-4.75t16.35-21.85q29.55-12.25,19-44.3T593.52,18.75Z"/></g><g id="Layer21_0_FILL" data-name="Layer21 0 FILL"><path class="cls-3" d="M559.17,27.05a31.92,31.92,0,0,0-5.15,7.8c-.37.7-.7,1.42-1,2.15a26.82,26.82,0,0,0-2,14.5q1.15,8.2,7,11.1t13.1-1.25a27.84,27.84,0,0,0,11.4-12.6,29.21,29.21,0,0,0,3-16.8,16.55,16.55,0,0,0-2.6-7q-12.11-3.64-21.15,2.15,9-5.81,21.15-2.15A10.91,10.91,0,0,0,578.32,21q-5.9-2.85-13.05,1.15a26,26,0,0,0-6.1,4.95m-5.1,19.45q4.84-14.25,25.75-17.2-20.9,3-25.75,17.2m23.15-11.2q-17.7,5.6-18,24.9.3-19.31,18-24.9m0,6.05q-12.35,4.4-11.15,18.85Q564.87,45.76,577.22,41.35Z"/></g><path id="Layer21_0_1_STROKES" data-name="Layer21 0 1 STROKES" class="cls-12" d="M554.07,46.5q4.84-14.25,25.75-17.2"/><path id="Layer21_0_2_STROKES" data-name="Layer21 0 2 STROKES" class="cls-13" d="M582.87,24.9q-12.11-3.64-21.15,2.15m15.5,8.25q-17.7,5.6-18,24.9m18-18.85q-12.35,4.4-11.15,18.85"/><g id="Layer20_0_FILL" data-name="Layer20 0 FILL"><path class="cls-3" d="M578.17,23.35q-2.1,2.05-1.1,18,10.95,30,52.35,41.05c.77.17,1.53.35,2.3.55-.77-.2-1.53-.38-2.3-.55Q588,71.35,577.07,41.35q-5.55-6.6-2.1,3.35,2.35,6.55,3.95,10.35A71.82,71.82,0,0,0,589.37,66.2a76.39,76.39,0,0,0,9.9,6.65,117.84,117.84,0,0,0,16.3,7.35c.73.27,1.47.52,2.2.75,1.33.27,2.7.52,4.1.75-1.4-.23-2.77-.48-4.1-.75q15.11,5,24.9-.55a17.27,17.27,0,0,0,8.2-10,33.1,33.1,0,0,0,1.35-12.65q-1.05-16.7-16.8-29.35T602.87,15.65q-11.8-.11-19.2,3.7a22.41,22.41,0,0,0-5.5,4m6.8-.9q28.35-8.25,51.5,10.3Q613.32,14.2,585,22.45m10.3,1.7q37.2,3.26,51.5,36.9-14.29-33.64-51.5-36.9M579.82,29.3q16.35,23.59,42.9,39.5Q596.17,52.9,579.82,29.3Z"/></g><path id="Layer20_0_1_STROKES" data-name="Layer20 0 1 STROKES" class="cls-12" d="M585,22.45q28.35-8.25,51.5,10.3M579.82,29.3q16.35,23.59,42.9,39.5"/><path id="Layer20_0_2_STROKES" data-name="Layer20 0 2 STROKES" class="cls-13" d="M577.07,41.35q10.95,30,52.35,41.05c.77.17,1.53.35,2.3.55m-36.45-58.8q37.2,3.26,51.5,36.9"/><path id="Layer20_0_3_STROKES" data-name="Layer20 0 3 STROKES" class="cls-19" d="M621.87,81.7c-1.4-.23-2.77-.48-4.1-.75q-30.94-6-38.85-25.9"/><g id="Layer19_0_FILL" data-name="Layer19 0 FILL"><path class="cls-9" d="M630.62,96.65a15.28,15.28,0,0,0,5-5.75A14.19,14.19,0,0,0,638,83.8c.07-2.1-1.12-4.12-3.55-6a6.86,6.86,0,0,0-7.65-.8q-4,2.05-7.25,8.15t-.9,9.6a7,7,0,0,0,5.65,3.65A12,12,0,0,0,630.62,96.65Z"/></g><path id="Layer18_0_1_STROKES" data-name="Layer18 0 1 STROKES" class="cls-20" d="M580.47,81.5a28.89,28.89,0,0,1-1.05,13q-6,3.75,2.8,5.75m17.95,5q-3.34,3.34-10,2.75"/><g id="Layer17_0_FILL" data-name="Layer17 0 FILL"><path class="cls-9" d="M636.82,150Q622,160.26,632.67,189.1t13.9,41.5q3.2,12.6,8.6,35,5.25,21.49,18.5,20,10.76-4.31,6.1-28.85t-8.45-43.1q-3.75-18.45-11.7-46.1T636.82,150Z"/></g><g id="Layer15_0_FILL" data-name="Layer15 0 FILL"><path class="cls-9" d="M567.22,290.05q-11.81,6.75-3.3,11.75,56.15-1.85,100.6-11.6,17.1-3.1,15.15-16.95-1.8-13.8-20.9-9.75Q621.27,272,567.22,290.05Z"/></g></g><g id="Layer_11" data-name="Layer 11"><g id="Layer28_0_FILL-2" data-name="Layer28 0 FILL"><path class="cls-3" d="M530.36,426.94c35.1,3.5,153.33-1,146.61-26.74,3.25-2.66-12.18-15.29-46.2-7.65C576.17,404.63,530.36,426.94,530.36,426.94Z"/></g></g><g id="Layer_9" data-name="Layer 9"><g id="Layer10_1_MEMBER_0_MEMBER_0_MEMBER_0_FILL" data-name="Layer10 1 MEMBER 0 MEMBER 0 MEMBER 0 FILL"><path class="cls-9" d="M474.51,293.69l-7.13,9.66c.14,3.38,3.68.92,9.71-5.82l4.59-1.06-4.27,5.47-3.69,12.87q4.08,4.05,6.65-5.4l.27,8.81q4.25,1.81,5-9.11l4.31-3-1.39,5.11,1,6.28c2.9-.27,4.07-2.49,3.5-6.64a9.36,9.36,0,0,1,6.66-5.42A12.65,12.65,0,0,0,510.4,298c2.18-4.35-4.45-5.84-21.4-8.67Z"/></g><g id="Layer10_2_MEMBER_0_MEMBER_0_MEMBER_0_FILL" data-name="Layer10 2 MEMBER 0 MEMBER 0 MEMBER 0 FILL"><path class="cls-9" d="M488.79,297.3l-5.63,12.41q3.66,4.64,10.09-6.65,13.15,2.76,10.19-8.59Q489.72,293.95,488.79,297.3Z"/></g><g id="Layer10_1_MEMBER_0_MEMBER_0_MEMBER_0_FILL-2" data-name="Layer10 1 MEMBER 0 MEMBER 0 MEMBER 0 FILL"><path class="cls-9" d="M540.27,291.26l-7.13,9.67c.14,3.38,3.68.92,9.71-5.83l4.59-1.05-4.27,5.46-3.69,12.87q4.08,4.06,6.65-5.4l.28,8.81q4.23,1.81,5-9.11l4.3-3-1.39,5.11,1,6.29c2.9-.28,4.07-2.49,3.5-6.65a9.36,9.36,0,0,1,6.66-5.41,12.67,12.67,0,0,0,10.69-7.43c2.18-4.35-4.45-5.84-21.4-8.67Z"/></g><g id="Layer10_2_MEMBER_0_MEMBER_0_MEMBER_0_FILL-2" data-name="Layer10 2 MEMBER 0 MEMBER 0 MEMBER 0 FILL"><path class="cls-9" d="M554.55,294.87l-5.63,12.41q3.66,4.64,10.09-6.65,13.15,2.76,10.19-8.59Q555.47,291.53,554.55,294.87Z"/></g></g><g id="Layer_4" data-name="Layer 4"><g id="Layer9_0_FILL" data-name="Layer9 0 FILL"><path class="cls-21" d="M753.27,275.75v.7l.2-.2-.2-.5m-10-21.65a16.56,16.56,0,0,0-5.1-1,21.59,21.59,0,0,0-5.4.4A23.79,23.79,0,0,0,728,255a47.77,47.77,0,0,0-5.9,2.9c-1.3.83-2.63,1.72-4,2.65l-4,3c-1.43,1.17-2.87,2.43-4.3,3.8q2.4,1.35,4.35,2.35l.6.3c.77.4,1.35.72,1.75.95l.95.35a40.44,40.44,0,0,0,5.45,2.1,25.45,25.45,0,0,0,3.35,1.05,8.09,8.09,0,0,0,1.7.35,30.79,30.79,0,0,0,5.6.65,21.85,21.85,0,0,0,6.4-.9,20,20,0,0,0,3.9-1.65,19.12,19.12,0,0,0,1.9-1.2,20.93,20.93,0,0,0,4.35-4.15,31.63,31.63,0,0,0,3.5-5l-.2-.65a23,23,0,0,0-10.25-7.8m-23.35-46.4c-2.73-.33-5.62-.57-8.65-.7q-3.75-.15-8.05-.05-4.8,0-9.9.5,1.35,3.5,2.7,6.45,1.54,3.6,3.35,7.1,2.4,4.55,4.75,8.15a72.46,72.46,0,0,0,5.8,7.8,53.82,53.82,0,0,0,5.55,5.55,40,40,0,0,0,11.1,6.85,34.17,34.17,0,0,0,9.6,2.2q10.2.85,21.8-4.1l.35-1.25q-.1-12.7-5.6-21.3a30.33,30.33,0,0,0-6.35-7.2A36,36,0,0,0,739,213a54,54,0,0,0-8.45-3.2,82.09,82.09,0,0,0-10.7-2.1m70.9,35.9a34.4,34.4,0,0,0-9.6-1.35,29.5,29.5,0,0,0-6.45.8,20,20,0,0,0-3.25.95,37.63,37.63,0,0,0-8.2,4.1,51.48,51.48,0,0,0-7.3,6.2q4.24,11,11.95,16.45a24.92,24.92,0,0,0,6.9,3.5,31,31,0,0,0,8.1,1.6,39.64,39.64,0,0,0,7.45-.1,62,62,0,0,0,9.9-1.85c2.23-.57,4.52-1.27,6.85-2.1s4.6-1.72,7-2.75l.8-.4q3.35-1.45,7.1-3.3c-1.8-1.87-3.6-3.63-5.4-5.3l-.7-.75c-1.13-1-2.27-2-3.4-2.95l-1.4-1.25c-1.9-1.53-3.78-2.92-5.65-4.15q-2.29-1.6-4.4-2.8a23.6,23.6,0,0,0-2.3-1.3,46.53,46.53,0,0,0-8-3.25m44.85-60.45q1.8-5.81,3.3-12.2-5.14.3-9.6.8c-3.37.37-6.43.78-9.2,1.25q-5.89,1-11.2,2.4a88.13,88.13,0,0,0-12.15,4.1,61.28,61.28,0,0,0-12.8,7.1,46.13,46.13,0,0,0-8.7,8.1,45.31,45.31,0,0,0-6.8,11.55,53,53,0,0,0-3.4,15.3,73.21,73.21,0,0,0,.15,12.35,61.32,61.32,0,0,0,16,3.2,41.43,41.43,0,0,0,13.25-1.2,38.2,38.2,0,0,0,11-4.75,46.06,46.06,0,0,0,8.75-7.1,64,64,0,0,0,8.35-10.75,95.52,95.52,0,0,0,5.55-10.25q1.85-3.9,3.5-8.2Q833.76,189.35,835.62,183.15Z"/></g><g id="Layer8_0_FILL" data-name="Layer8 0 FILL"><path class="cls-21" d="M771.07,233.6l-3.9-6.2q-9.64,6-13.75,19a.49.49,0,0,0,0,.2l-.1.4a46.78,46.78,0,0,0-1.25,5.3l-.2,1.1v0a83.75,83.75,0,0,0-1.25,13.9v.05q0,7.25,3.25,45.9h7q-2.9-39-2.9-45.85a80.45,80.45,0,0,1,1.1-12.7v0a47,47,0,0,1,1.25-5.5.5.5,0,0,0,.05-.15l.1-.35a.49.49,0,0,0,.05-.2Q763.72,238.36,771.07,233.6Z"/></g><path id="Layer7_0_1_STROKES" data-name="Layer7 0 1 STROKES" class="cls-22" d="M840.22,169.85l-11.35,9.65,7.9,3.1m-7.9-3.1-11.3,9.65L832.52,195m-3.65-15.5,1.2-8.85m-9.6,1.3-2.9,17.2L809,196.5l19.9,7.05M823,214.3l-25.25-8.25-7.65,6.55,24.1,13m-9.2,7.5-23.95-12.8-7.35,6.25,19.8,11.5m2.4-59.25,1.85,27.25L809,196.5l-.3-22m-35.35,20.3,7.75,25.5,9-7.7-7.65-26.35m-91,19.9,9.9,6,.4-6.55m-.4,6.55,9.9,6.05-1.1-12.55m-7.45,23.05,16-5.85-7.5-4.65-13.45,2.05m32.45-11.65-1.75,20.2,6.7,4.1,3.85-21m-19.9-5.5-.4,16.45,9.75,5.95-19.8,8m17.35,12.9,17-11.9L735.22,233,714,242.9m22,9.15,13.5-10.3-6.45-3.95,3.6-21m6.6,7.5-3.75,17.4m16.7-34.8,7.5,19.6M747.07,272.3l1.9-9.4L738.82,264l-5,12.4M749,262.9l-4.8-9.85-.4.2m39,22.9-3.65-18-7.9-1.3,3.3,17.7m-3.3-17.7-6.35-1.1,2.65,15.15m-59.6-3.4,9.65-1.05-2.75-4.8m2.75,4.8,9.6-1.1-5.95-8.05m-3.65,9.15-2.4,5.05m23.65-7.5-11.65,1.35-5,8.9M738.82,264l-6.05-11.45m78.7,2.45-8.5,7.2,9.85,1.6,3.9-4.25m5.9,5.9-9.8-1.65,2.6,5m-14.9,5.35-5.1-13.25-9.7-1.6,4.7,16.8m.35-32.85-11.65,14.9,6.6,1.15,13.2-12.7m8.55,25.4-4.5-9.8-7.55-1.3,10.4-10.15M781,241.85l-9.75,15m-6.35-1.1,6.2-12.15m-76.8-30.7,7.1-.7"/><g id="Layer6_0_FILL" data-name="Layer6 0 FILL"><path class="cls-17" d="M768.42,316.4a27.05,27.05,0,0,0-8.45-1.2,19.43,19.43,0,0,0-13.3,4.65,29.72,29.72,0,0,0-3.85,4.35c-.27.4-.53.82-.8,1.25l.05.45h25.5l.85-9.5m-8.8-24.65a17,17,0,0,0,5.5.75c2.5-.07,4.28-.08,5.35-.05h.2l.15-4.2h-16a13,13,0,0,0,4.8,3.5m-18.45,1.05c-.73,0-1.47,0-2.2.05l2.3,24.8q5.06-.11,10.65-3.8a31.75,31.75,0,0,1,4.5-2.65,14.58,14.58,0,0,1,5.8-1.15,13.15,13.15,0,0,1,6.65,1.6l.85-9.2q-1.46.35-3.75,1.05a32.09,32.09,0,0,1-5.45,1.35A8.21,8.21,0,0,1,755,303a24,24,0,0,1-3.4-4.1,16.26,16.26,0,0,0-3.8-4.15,11.1,11.1,0,0,0-6.65-1.9m-2.35-4.55h16a8.68,8.68,0,0,1,.8-2.55q.9-2.1,8.1-1.65t10.1-3.8l-21.75.4q-2,3.3-7.1,3.75T738.82,288.25Z"/><path class="cls-9" d="M768.42,316.4l.45-4.75a13.15,13.15,0,0,0-6.65-1.6,14.58,14.58,0,0,0-5.8,1.15,31.75,31.75,0,0,0-4.5,2.65q-5.59,3.7-10.65,3.8l.75,7.8c.27-.43.53-.85.8-1.25a29.72,29.72,0,0,1,3.85-4.35A19.43,19.43,0,0,1,760,315.2a27.05,27.05,0,0,1,8.45,1.2m-12.8-30.7a8.68,8.68,0,0,0-.8,2.55h16l.25-.2h2l.7-7.8q-2.85,4.2-10.1,3.8t-8.1,1.65m-.8,2.55h-16q1.09-3.45,6.15-3.85t7.1-3.75H735.92l.7,7.4h1.9l.45,4.8c.73,0,1.47-.05,2.2-.05a11.1,11.1,0,0,1,6.65,1.9,16.26,16.26,0,0,1,3.8,4.15A24,24,0,0,0,755,303a8.21,8.21,0,0,0,5.5,1.9A32.09,32.09,0,0,0,766,303.5q2.29-.71,3.75-1.05l.95-10h-.2c-1.07,0-2.85,0-5.35.05a17,17,0,0,1-5.5-.75A13,13,0,0,1,754.82,288.25Z"/></g></g><g id="Layer_5" data-name="Layer 5"><g id="Layer4_0_FILL" data-name="Layer4 0 FILL"><path class="cls-23" d="M382.57,222.9h40v66.35h104.9L512.32,154.5H278.82L294,289.25h88.6Z"/><path class="cls-24" d="M422.57,222.9h-40v92.7h-.2v5.7h63.15v-5.7H422.57V222.9m98.65-68.4h-8.9l15.15,134.75h8.9L521.22,154.5m-60.4,156.75v10h136v-10Z"/></g><g id="Layer13_0_FILL" data-name="Layer13 0 FILL"><path class="cls-25" d="M767.8,326.9a30.33,30.33,0,0,0-4.09-4.62q-5.62-4.95-14.13-4.94a28.8,28.8,0,0,0-9,1.27l.91,10.09H768.6l0-.47c-.28-.46-.56-.91-.85-1.33m4.09-33.31c-.77,0-1.55,0-2.33,0a11.86,11.86,0,0,0-7.07,2,17.47,17.47,0,0,0-4,4.41,24.91,24.91,0,0,1-3.61,4.36,8.72,8.72,0,0,1-5.84,2,33.94,33.94,0,0,1-5.79-1.44q-2.44-.73-4-1.11l.91,9.77a14,14,0,0,1,7.06-1.7,15.44,15.44,0,0,1,6.16,1.23,33.12,33.12,0,0,1,4.79,2.81q5.94,3.93,11.31,4l2.44-26.35m-16.84-4.89h-17l.16,4.46h.22c1.13,0,3,0,5.68.06a18,18,0,0,0,5.84-.8,13.9,13.9,0,0,0,5.1-3.72m-20.18-8.5q3,4.47,10.73,4t8.6,1.75a8.83,8.83,0,0,1,.85,2.71h17c-.78-2.44-2.95-3.81-6.53-4.09s-6.13-1.65-7.54-4Z"/><path class="cls-17" d="M769.45,319.94q-5.37-.1-11.31-4a33.12,33.12,0,0,0-4.79-2.81,15.44,15.44,0,0,0-6.16-1.23,14,14,0,0,0-7.06,1.7l.47,5.05a28.8,28.8,0,0,1,9-1.27q8.5,0,14.13,4.94a30.33,30.33,0,0,1,4.09,4.62c.29.42.57.87.85,1.33l.8-8.29m5.69-39.31H758c1.41,2.33,3.93,3.66,7.54,4s5.75,1.65,6.53,4.09h-17a13.9,13.9,0,0,1-5.1,3.72,18,18,0,0,1-5.84.8c-2.66-.07-4.55-.09-5.68-.06h-.22l1,10.63q1.54.38,4,1.11a33.94,33.94,0,0,0,5.79,1.44,8.72,8.72,0,0,0,5.84-2,24.91,24.91,0,0,0,3.61-4.36,17.47,17.47,0,0,1,4-4.41,11.86,11.86,0,0,1,7.07-2c.78,0,1.56,0,2.33,0l.48-5.1h2l.75-7.86m-29.54,3.61q-7.71.42-10.73-4l.74,8.29h2.18l.26.21h17a8.83,8.83,0,0,0-.85-2.71Q753.26,283.76,745.6,284.24Z"/></g></g><g id="Layer_6" data-name="Layer 6"><path id="Layer3_0_1_STROKES" data-name="Layer3 0 1 STROKES" class="cls-26" d="M457.47,323.45a1,1,0,0,0,.1.6m-121-32.6a1.16,1.16,0,0,0-.15.6"/><path id="Layer3_0_2_STROKES" data-name="Layer3 0 2 STROKES" class="cls-27" d="M295.27,327.35q-52.15,215.1-68.5,290.75Q222,640,220.07,651.35a78.8,78.8,0,0,0-1.35,9.15c0,.3-.05.58-.05.85-.07.07-.07.2,0,.4-.07.6,0,.93.25,1q2.7,0,32.25-102.5,21.95-77.21,60.7-217.1,2.1-7.9,4.45-16.15m20.15-2.75q-2.55,12.71-4.8,24.8-.45,2.51-.75,5.25a35,35,0,0,0-.9,4.6q-4.65,23.25-8.5,45Q294.63,548,285.22,607q-6,35.5-5.65,42c-.07.87.05,1.35.35,1.45q2.55-.15,26.1-99.75,17.5-75.19,48-211.1,1.69-7.85,3.6-15.85m378.2,3.3q36.86,215.1,48,290.85,3.19,21.75,4.5,33.2.6,6.35.7,9.15a2.32,2.32,0,0,0-.1.95c-.07.8-.18,1.27-.35,1.4q-2.85-.1-24.85-102.7-16.27-74.61-43.55-207.63-1-4.73-2-9.52-1.75-8.06-3.45-16.4m12.8,322a6.62,6.62,0,0,1-.5,1.5q-1.54-.13-6.9-29.4-4.53-24.76-11.8-70.4-8.6-53.48-21.25-137.87-5.1-34-10.85-73-1.35-8-2.4-15.85m24.45,32.55c.1,1.5.27,3,.5,4.5q14.18,124.13,21.35,194.05,3.11,30.21,4.9,50.3,3.11,35.1,2.5,41.65M694.87,323.75q1.65,15.35,3.4,30.05"/><g id="Layer2_0_FILL" data-name="Layer2 0 FILL"><path class="cls-3" d="M809.82,335V321h-128v14Z"/><path class="cls-28" d="M241.82,321v14h440V321Z"/></g></g></g></svg>